<svg width="21" height="19" viewBox="0 0 21 19" fill="none" xmlns="http://www.w3.org/2000/svg">
<circle cx="11.5" cy="10.5" r="3.5" stroke="#E17D66" stroke-width="2" stroke-dasharray="0.5 0.5"/>
<path d="M20.3527 10.2175C20.3706 10.5842 20.2696 11.0568 20.1448 11.4009C20.1061 11.5085 20.0388 11.4372 20.0083 11.5097C19.9482 11.6503 19.955 11.7971 19.8832 11.9324C19.859 11.9769 19.7517 11.8871 19.7292 11.9339C19.6065 12.1894 19.5617 12.4489 19.4434 12.7061C18.8612 13.9642 18.1021 15.0853 17.1199 16.0257C16.7953 16.3381 16.3194 16.6113 15.9879 16.927C15.9491 16.9642 16.0415 17.0327 16.0389 17.0461C15.9939 17.2551 15.9024 17.0444 15.8012 17.0821C15.3991 17.2314 15.0142 17.4619 14.6883 17.6878C14.5493 17.7839 14.802 17.8977 14.593 17.869C14.5787 17.8671 14.5619 17.7434 14.5153 17.7536C14.4107 17.7771 14.2436 17.8831 14.1664 17.9088C14.0178 17.9581 13.9956 17.9692 13.8608 18.0267C13.6749 18.1042 13.4343 18.1367 13.2414 18.2331C13.2002 18.2541 13.2977 18.3474 13.235 18.391C13.1723 18.4351 12.9824 18.4867 12.9109 18.4787C12.8394 18.4711 12.8387 18.3723 12.8213 18.3549C12.6791 18.2078 12.5372 18.5105 12.5088 18.524C12.0241 18.7627 11.544 18.7034 11.0601 18.7588C10.6927 18.8011 10.2999 18.869 9.94361 18.8629C9.94066 18.8629 9.93772 18.8628 9.93477 18.8628C9.50794 18.8532 9.15592 18.766 8.74723 18.7289C8.70402 18.7247 8.73758 18.8714 8.68421 18.8663C8.11696 18.812 7.55743 18.6766 7.04652 18.4208C6.9954 18.395 7.10106 18.2975 7.05277 18.2647C6.75054 18.0677 6.36639 17.6546 5.96335 18.0653C5.75708 17.9527 5.50832 17.8071 5.37688 17.6133C5.29242 17.4884 5.47014 17.4308 5.30069 17.404C5.26252 17.3975 5.24676 17.5244 5.19337 17.5065C4.96812 17.4305 4.76958 17.2643 4.54285 17.1873C4.49639 17.1717 4.44814 17.2671 4.42622 17.2755C4.2432 17.3399 4.23322 17.0193 4.21248 16.9809C4.04251 16.6858 3.83573 16.5906 3.61851 16.3995C3.56851 16.3551 3.53495 16.5149 3.48302 16.4754C3.2142 16.2679 2.96874 16.0113 2.79158 15.7254C2.75257 15.6617 2.88765 15.6291 2.87385 15.5947C2.81384 15.4448 2.61933 15.5711 2.5601 15.4257C2.54764 15.3953 2.63842 15.3415 2.64346 15.3298C2.72431 15.1478 2.48104 15.2514 2.46176 15.2366C2.21923 15.0578 2.32164 14.7509 2.13669 14.5489C2.11414 14.5243 2.04764 14.6605 1.99057 14.586C1.60953 14.09 1.32434 13.4763 1.19469 12.8692C1.1744 12.7748 1.29152 12.8014 1.30055 12.7912C1.4424 12.6326 1.18298 12.6672 1.16287 12.6409C1.01173 12.4341 1.14768 12.156 0.809762 12.0825C0.655867 11.2563 0.447351 10.434 0.547699 9.59962C0.572487 9.39444 0.615946 9.19511 0.683542 8.99716C0.687583 8.98453 0.811355 9.01613 0.818874 8.99116C0.913446 8.69241 0.714665 8.73764 0.501537 8.49966C0.448323 8.43795 0.75636 8.31925 0.779441 8.31019C0.864002 8.27224 1.04104 8.35169 1.05847 8.33748C1.19647 8.22335 0.58184 8.14476 0.617007 7.95209C0.61913 7.94639 0.726297 7.99229 0.740398 7.97856C0.784516 7.93634 0.749716 7.87919 0.797922 7.83944C0.909788 7.74815 1.21005 7.77835 1.07866 7.57776C1.06196 7.55179 0.712165 7.50019 0.771916 7.33656C0.794889 7.27131 0.874591 6.97626 0.92365 6.90281C0.971512 6.82879 1.0609 6.91957 1.06745 6.91519C1.28034 6.74872 1.31228 6.85001 1.5568 6.82132C1.80026 6.79634 1.29676 6.64314 1.25778 6.57951C1.2188 6.51559 1.39401 6.40672 1.44884 6.38699C1.50359 6.36652 1.55131 6.43941 1.58704 6.4163C1.82219 6.26583 1.38641 6.22038 1.34079 6.11506C1.23629 5.86148 1.65329 5.89261 1.76109 5.7642C1.79075 5.72869 1.69485 5.72121 1.70594 5.68137C1.75216 5.52323 1.90386 5.49828 1.89808 5.28489C1.89645 5.25097 1.77242 5.00001 1.97061 5.0078C1.99885 5.00944 2.06101 5.09319 2.11559 5.04709C2.19713 4.97804 2.31475 4.83832 2.3505 4.73058C2.37695 4.65071 2.19239 4.63496 2.29227 4.57956C2.33671 4.55538 2.36446 4.67784 2.4412 4.62867C2.51711 4.57978 2.642 4.40655 2.69033 4.34082C2.73801 4.27496 2.61539 4.2344 2.61298 4.22421C2.60077 4.16349 2.65656 4.00248 2.66611 3.99175C3.11721 3.42908 3.73172 3.12818 4.22911 2.66158C4.26877 2.62489 4.16281 2.54462 4.16806 2.53798C4.28505 2.38293 4.37218 2.74291 4.54107 2.75983C4.37276 2.56113 4.46109 2.55385 4.55027 2.45646C4.59337 2.40936 4.50818 2.34613 4.50692 2.33443C4.49742 2.15491 4.66364 2.28145 4.69936 2.30613C4.83239 2.3959 4.79193 2.21284 4.88091 2.27377C4.96854 2.33477 4.96856 2.5079 5.06912 2.44181C5.04872 2.34473 4.84101 2.18816 4.90034 2.10435C5.12697 1.77962 5.82072 1.63346 6.08878 1.54267C6.35871 1.44583 6.43903 1.39783 6.60631 1.36985C6.90906 1.32354 6.74408 1.19205 6.89786 1.05257C7.05461 0.914738 7.10048 1.36678 7.15501 1.44935C7.20806 1.5326 7.20544 1.43058 7.25139 1.47135C7.29683 1.5123 7.2508 1.59408 7.32693 1.59156C7.40155 1.5889 7.54939 1.3717 7.55114 1.26857C7.55266 1.04992 7.40378 0.858341 7.62455 0.883186C7.63707 0.884875 7.62799 1.00726 7.67437 1.00803C8.04089 1.0108 8.40465 0.949926 8.76238 0.985252C8.81145 0.990342 8.78483 1.12446 8.81327 1.12895C9.10814 1.17879 8.981 0.973371 9.12154 0.716113C9.11364 1.04203 9.21712 1.22959 9.43078 1.21916C9.56023 1.21366 9.5305 1.07387 9.61227 0.971033C9.63708 0.939992 9.73302 1.03449 9.74847 0.967811C9.8009 0.749986 9.70596 0.506813 9.94361 0.602045C9.94371 0.602085 9.94381 0.602125 9.9439 0.602165C9.94757 0.603789 9.94582 0.619622 9.94361 0.639761C9.9407 0.666245 9.93703 0.700174 9.94361 0.719013C9.94622 0.726481 9.95043 0.731579 9.95695 0.732911C10.1847 0.781732 10.216 0.554775 10.4695 0.53918C10.6702 0.526911 11.0061 0.696116 11.2211 0.748815C11.1702 1.10869 11.3777 1.05356 11.5028 0.820491C11.6429 0.853722 11.7968 0.868199 11.9258 0.930924C11.9699 0.952372 11.9173 1.04889 11.9208 1.06127C11.9712 1.25462 12.0832 1.03018 12.1159 1.02798C12.4646 1.01487 12.6716 1.2671 13.0295 1.19736C13.0419 1.19479 13.1426 0.961769 13.1633 1.16476C13.1639 1.17852 13.0266 1.2517 13.165 1.31041C13.3052 1.36961 13.5132 1.59629 13.7485 1.57283C13.8048 1.56665 14.0082 1.4332 14.0334 1.62294C14.0364 1.64847 13.9918 1.7075 13.992 1.7523C13.9924 1.89504 14.1362 1.68095 14.1054 1.90817C14.0746 2.13561 14.1267 2.34394 14.3734 2.31084C14.3809 2.31006 14.5224 2.15728 14.577 2.1926C14.6637 2.24876 14.7667 2.36043 14.8573 2.41655C14.9008 2.4434 14.9408 2.31984 14.9496 2.32268C15.2825 2.45327 15.4247 2.6914 15.6832 2.95874C15.7298 3.00715 15.9927 3.0017 16.0034 3.19186C16.0125 3.39887 15.4968 3.76187 15.8226 3.86311C15.9487 3.90121 16.6268 3.46757 16.499 3.9239C16.8896 4.19471 16.9923 4.65407 17.3671 4.94932C17.3838 4.9625 17.6024 4.89591 17.6277 4.93991C17.6645 5.00492 17.6002 5.09422 17.6223 5.14194C17.7125 5.34319 17.8885 5.47352 17.9767 5.66851C18.0099 5.7423 17.9034 5.76614 17.9414 5.85336C17.9788 5.94019 18.1324 5.93674 18.1268 6.08333C18.122 6.19467 17.9015 6.39756 17.9185 6.52369C18.1787 6.41958 18.2081 6.50221 18.334 6.62318C18.3584 6.64655 18.4378 6.58104 18.454 6.5904C18.5223 6.62825 18.4655 6.70787 18.5361 6.7423C18.5531 6.7508 18.6435 6.7192 18.6626 6.72455C18.8288 6.76991 18.6752 6.99266 18.6469 7.02839C18.5423 7.16964 18.6749 7.1788 18.6433 7.27103C18.611 7.36203 18.5116 7.26893 18.5037 7.3656C18.4872 7.5648 18.558 7.79191 18.5907 7.97851C18.6043 8.05255 18.7196 7.97745 18.7245 7.98746C18.7874 8.1378 18.6783 8.3162 18.9428 8.36603C18.3062 8.56772 19.0212 8.45141 18.9166 8.69872C18.9079 8.71828 18.6007 8.77188 18.5481 8.711C18.4955 8.65063 18.5798 8.53845 18.4961 8.45751C18.4766 8.4372 18.1698 8.36204 18.1496 8.34976C17.9927 8.24862 18.4463 8.14787 18.4702 8.13569C18.7268 8.00487 18.3871 7.91452 18.3574 7.88217C18.2211 7.7266 18.2464 7.56377 18.1365 7.43722C18.0649 7.35498 17.7704 7.43442 17.7577 7.36163C17.7143 7.12327 18.0814 6.88764 17.6517 6.7996C17.5596 6.78163 17.271 6.95314 17.4455 6.69136C17.4571 6.6759 17.6235 6.45667 17.4529 6.44874C17.4315 6.44793 17.3434 6.48873 17.3308 6.48081C17.2479 6.42733 17.2936 6.34373 17.2197 6.27833C17.1458 6.21303 17.047 6.14304 17.0262 6.03702C17.0138 5.97353 17.1307 5.8137 17.1532 5.76444C17.2192 5.62398 16.9916 5.65216 17.0946 5.52546C17.1966 5.39576 17.4566 5.36612 17.4602 5.18403C17.2445 5.31478 17.0197 5.44371 16.8019 5.57385C16.6456 5.31414 16.5332 5.0213 16.3276 4.7889C16.302 4.76046 16.2223 4.87676 16.1924 4.84901C16.0675 4.73278 16.0409 4.55677 15.8904 4.4533C15.7736 4.37382 15.5668 4.36968 15.4409 4.30031C15.5774 4.03135 15.3507 3.95696 15.2501 3.83847C15.2144 3.79653 15.2665 3.73972 15.2524 3.69533C15.1963 3.52931 15.0895 3.77163 15.0335 3.77788C14.7959 3.8083 15.138 3.34237 14.9577 3.22782C14.9474 3.22074 14.6606 3.39438 14.6357 3.40082C14.4709 3.43895 14.6811 3.30185 14.634 3.24217C14.5475 3.1337 14.5077 3.01999 14.3269 3.01461C14.2733 3.01298 14.0839 3.12294 14.0825 2.95145C14.0822 2.92886 14.1381 2.84372 14.1329 2.83388C14.032 2.66296 13.8732 2.94148 13.7403 2.99323C13.6083 3.04556 13.5787 2.78473 13.5779 2.71394C13.5779 2.53126 13.6636 2.67733 13.6743 2.66493C13.8055 2.51567 13.6918 2.49572 13.6215 2.44471C13.7447 2.15614 13.6242 2.1211 13.548 2.39317C13.5396 2.42279 13.6122 2.42436 13.6215 2.44471C13.4212 2.68997 13.2985 2.67657 13.2788 2.35627C13.2688 2.20639 13.3886 2.08458 13.1723 2.05973C13.0743 2.04921 13.0305 2.2636 12.9338 2.2898C12.715 2.35044 12.5543 2.08435 12.358 2.06017C12.2882 2.0518 12.3199 2.18401 12.2716 2.18245C12.1443 2.17929 12.0599 2.06536 11.9273 2.08C11.9154 2.08153 11.913 2.20805 11.8755 2.20069C11.591 2.14824 11.3562 2.02372 11.0526 1.98081C10.9057 1.95948 10.6373 2.00154 10.4868 1.97909C10.3172 1.95321 10.1264 1.86694 9.94361 1.82377C9.84311 1.79982 9.74758 1.78886 9.66641 1.80703C9.51786 1.84032 9.5569 1.96306 9.49822 2.05022C9.3883 2.21875 9.15592 1.94512 9.12024 1.90356C9.11897 1.90198 9.24389 1.86152 9.1701 1.80438C9.11798 1.6763 9.12142 1.90288 9.12024 1.90356C9.0984 1.87533 8.83906 1.87647 8.79218 1.9078C8.7666 1.92434 8.79787 2.0383 8.78444 2.04472C8.46419 2.19527 8.1503 2.28902 7.80912 2.32352C7.80272 2.32279 7.77758 2.19386 7.76279 2.19377C7.55453 2.18995 7.47646 2.38202 7.35542 2.52246C7.23435 2.66331 7.1091 2.67626 6.93754 2.5015C6.83371 2.57177 6.63233 2.54856 6.51302 2.53614C6.39338 2.52369 6.48773 2.76168 6.48188 2.76984C6.30147 3.03321 6.09867 2.97378 5.83617 3.09792C5.71128 3.15607 5.50097 3.33112 5.39563 3.43742C5.31248 3.52104 5.22105 3.51249 5.15673 3.60669C5.14809 3.61935 5.22698 3.70234 5.22601 3.70846C5.21265 3.88721 5.09226 3.63114 5.04271 3.60616C4.86268 3.51613 4.75579 3.47622 4.6858 3.6416C4.66855 3.68041 4.84385 4.05409 4.81281 4.11159C4.77051 4.18707 4.69988 4.05857 4.65787 4.14175C4.65425 4.14878 4.71388 4.21386 4.67219 4.24602C4.47967 4.396 4.25263 4.54839 4.08729 4.74381C4.06461 4.77014 4.19816 4.83148 4.16768 4.87059C4.02481 5.05395 3.86233 5.24526 3.67513 5.38885C3.62867 5.42402 3.57019 5.33784 3.53944 5.33047C3.35122 5.28871 3.49779 5.52637 3.49268 5.54259C3.36172 5.95204 3.00032 6.11218 2.9122 6.54847C2.90676 6.57393 3.08461 6.84417 2.8385 6.82188C2.82231 6.81977 2.56846 6.80028 2.69473 6.92801C2.70279 6.93571 2.83576 6.93742 2.79264 7.01104C2.74916 7.08587 2.78 7.23905 2.61354 7.30479C2.56135 7.32457 2.30324 7.33683 2.45331 7.50152C2.46269 7.51523 2.83231 7.7942 2.52914 7.77238C2.47934 7.76881 2.17516 7.67761 2.2991 7.84906C2.3235 7.8814 2.40293 7.85388 2.42993 7.92889C2.47211 8.04254 2.36011 8.15731 2.47581 8.30506C2.49609 8.33178 2.69167 8.45593 2.51952 8.50043C2.49251 8.50766 2.39161 8.46934 2.37385 8.50592C2.28894 8.68086 2.33652 8.88308 2.24969 9.06535C2.21924 9.13082 2.05118 9.08415 2.00092 9.15387C1.95052 9.2238 1.90053 9.36977 1.97736 9.44808C2.05416 9.52517 2.32731 9.44835 2.34801 9.55767C2.35072 9.57166 2.35325 9.58565 2.35561 9.59962C2.43321 10.0526 2.32581 10.5119 2.3935 10.9729C2.40399 11.0425 2.48758 10.9663 2.51051 11.066C2.59144 11.44 2.87706 12.0168 2.8246 12.4002C2.78216 12.7144 2.52715 12.4513 2.5521 12.6724C2.56629 12.7818 2.89988 12.7436 2.91895 12.7595C3.11311 12.9228 3.06827 13.1309 3.21481 13.2921C3.245 13.3248 3.33267 13.222 3.35693 13.25C3.44039 13.3443 3.46347 13.4853 3.53984 13.5785C3.57434 13.62 3.64925 13.556 3.67093 13.6002C3.72413 13.7054 3.75186 13.8124 3.75014 13.9604C3.75019 13.9742 3.60925 13.9912 3.6606 14.0649C3.74344 14.1829 3.79101 14.3827 3.97299 14.4463C4.02749 14.465 4.19368 14.3157 4.15095 14.4975C4.14217 14.5352 3.92661 14.6993 4.18124 14.6301C4.22506 14.6208 4.58801 14.5437 4.51932 14.7565C4.50112 14.8128 4.40033 15.0205 4.46869 15.0364C4.47836 15.0378 4.53614 14.9276 4.58024 14.9521C4.73417 15.0399 4.86299 15.1669 5.02513 15.2478C5.0683 15.2688 5.0912 15.1283 5.15239 15.1621C5.32021 15.2546 5.49198 15.4175 5.6266 15.5529C5.67606 15.603 5.57978 15.663 5.5777 15.6751C5.54702 15.8732 5.72188 15.6922 5.75162 15.6939C5.93791 15.7092 5.98803 15.8726 6.13875 15.9209C6.17997 15.9342 6.20988 15.8167 6.22231 15.8115C6.34689 15.7628 6.18978 15.9175 6.22773 15.9643C6.33433 16.096 6.49686 16.1658 6.64713 16.2176C6.70227 16.2364 6.69934 16.0856 6.74759 16.1035C7.03423 16.2065 7.32098 16.3286 7.58375 16.4891C7.63335 16.5195 7.56862 16.6092 7.57287 16.6356C7.60401 16.8207 7.78503 16.6345 7.81628 16.6204C7.96228 16.5572 7.98588 16.6587 8.09692 16.6676C8.637 16.7111 9.2797 16.85 9.79271 16.8941C9.84364 16.8988 9.8939 16.9033 9.94361 16.9075C10.5387 16.9564 11.0432 16.988 11.6207 16.8448C11.6603 16.8348 11.5913 16.7069 11.6246 16.6966C12.0514 16.5705 12.4877 16.4942 12.8875 16.2904C12.92 16.274 12.8224 16.1708 12.8721 16.1405C12.9741 16.0774 13.1123 16.0247 13.2385 16.012C13.3002 16.0054 13.277 16.1418 13.3388 16.1327C13.4833 16.1112 13.6222 16.0512 13.7385 15.9635C13.7875 15.926 13.6424 15.8514 13.7102 15.8123C14.1705 15.5412 14.5752 15.2316 15.0997 15.0081C15.1353 14.993 15.3428 15.1769 15.3688 15.0823C15.3222 15.0216 15.2616 14.9554 15.2088 14.8933C15.7562 14.3369 16.3191 13.7921 16.7241 13.1119C16.7409 13.0834 16.5863 13.0608 16.6177 13.0061C16.7986 12.6873 16.9086 12.3573 17.1754 12.0567C17.2015 12.0266 17.4358 12.1336 17.4376 12.0129C17.4381 11.9917 17.4606 11.818 17.4199 11.7599C17.4137 11.7519 17.2906 11.7447 17.3033 11.6927C17.3785 11.3903 17.4799 11.0838 17.6038 10.7862C17.624 10.738 17.7408 10.8125 17.7563 10.7778C17.8658 10.5287 17.7994 10.2365 17.9277 9.99137C18.0134 9.8262 18.2303 9.89764 18.4499 9.8088C18.4811 9.79605 18.4878 9.68355 18.6138 9.67852C18.931 9.6652 19.2775 9.72838 19.6157 9.70791C19.6888 9.70352 19.6108 9.52863 19.7865 9.63259C19.7985 9.6398 19.8555 9.76827 19.9142 9.80154C19.955 9.82474 20.0841 9.78702 20.1358 9.83432C20.1874 9.8821 20.0786 9.92926 20.1374 10.0078C20.1966 10.0871 20.3447 10.0592 20.3527 10.2175ZM5.96987 2.49805C5.82484 2.43539 6.0225 2.83841 6.06455 2.69542C6.06634 2.68806 5.97714 2.50106 5.96987 2.49805ZM16.7986 4.82124C16.8759 4.59597 16.5914 4.70682 16.5273 4.87211C16.4609 5.03482 16.7741 4.8884 16.7986 4.82124ZM17.6482 5.88999C17.7125 5.67821 17.1436 5.96401 17.3308 6.04172C17.3414 6.04631 17.6443 5.90214 17.6482 5.88999ZM18.4872 10.2595C18.4934 10.2586 18.5054 10.1779 18.4996 10.1755C18.3607 10.1229 18.337 10.2812 18.4872 10.2595ZM18.324 7.09355C18.3909 7.01952 18.2507 6.91679 18.1692 7.00928C18.1036 7.08231 18.2407 7.18378 18.324 7.09355ZM1.95838 5.85935C1.95164 5.85775 1.91899 5.90926 1.95342 5.925C2.06408 5.97562 2.07083 5.8862 1.95838 5.85935ZM18.7233 9.40732C18.7375 9.06643 19.2416 8.79783 19.2068 9.20537C19.1995 9.27747 19.0316 9.05889 18.989 9.15277C18.9109 9.31872 19.2439 9.4224 19.0675 9.59649C19.0356 9.62563 18.7218 9.42519 18.7225 9.40672C18.7228 9.40692 18.723 9.40712 18.7233 9.40732ZM5.66917 2.04705C5.66451 2.04268 5.58714 2.07737 5.58818 2.08359C5.61575 2.23024 5.76911 2.16168 5.66917 2.04705ZM0.793067 9.23698C0.779683 9.24096 0.76185 9.44179 0.77395 9.44871C1.00385 9.55472 1.03982 9.1605 0.793067 9.23698ZM11.2233 0.758893C11.3362 0.629228 11.4565 0.630304 11.5024 0.82024C11.4104 0.79552 11.3162 0.780133 11.2233 0.758893Z" fill="#E17D66"/>
</svg>
